<svg width="138" height="138" viewBox="0 0 138 138" fill="none" xmlns="http://www.w3.org/2000/svg">
<path d="M51.75 17.25C53.0138 17.2499 54.2425 17.6662 55.246 18.4345L55.821 18.9348L71.3805 34.5H109.25C113.65 34.4998 117.884 36.1809 121.085 39.1994C124.286 42.2179 126.213 46.3456 126.471 50.738L126.5 51.75V97.75C126.5 102.15 124.819 106.384 121.801 109.585C118.782 112.786 114.654 114.713 110.262 114.971L109.25 115H28.75C24.35 115 20.1163 113.319 16.915 110.301C13.7137 107.282 11.7869 103.154 11.5288 98.762L11.5 97.75V34.5C11.4998 30.1 13.1809 25.8663 16.1994 22.665C19.2179 19.4637 23.3456 17.5369 27.738 17.2788L28.75 17.25H51.75Z" fill="#804800"/>
</svg>
